{
    "asset" : {
        "generator" : "Khronos glTF Blender I/O v1.8.19",
        "version" : "2.0"
    },
    "scene" : 0,
    "scenes" : [
        {
            "name" : "Scene",
            "nodes" : [
                0,
                1
            ]
        }
    ],
    "nodes" : [
        {
            "mesh" : 0,
            "name" : "donut"
        },
        {
            "mesh" : 1,
            "name" : "icing"
        }
    ],
    "meshes" : [
        {
            "name" : "Torus",
            "primitives" : [
                {
                    "attributes" : {
                        "POSITION" : 0,
                        "NORMAL" : 1,
                        "TEXCOORD_0" : 2
                    },
                    "indices" : 3
                }
            ]
        },
        {
            "name" : "Torus.001",
            "primitives" : [
                {
                    "attributes" : {
                        "POSITION" : 4,
                        "NORMAL" : 5,
                        "TEXCOORD_0" : 6
                    },
                    "indices" : 7
                }
            ]
        }
    ],
    "accessors" : [
        {
            "bufferView" : 0,
            "componentType" : 5126,
            "count" : 2836,
            "max" : [
                0.04938220977783203,
                0.02020493522286415,
                0.049380119889974594
            ],
            "min" : [
                -0.04935109242796898,
                -0.019407067447900772,
                -0.04936032369732857
            ],
            "type" : "VEC3"
        },
        {
            "bufferView" : 1,
            "componentType" : 5126,
            "count" : 2836,
            "type" : "VEC3"
        },
        {
            "bufferView" : 2,
            "componentType" : 5126,
            "count" : 2836,
            "type" : "VEC2"
        },
        {
            "bufferView" : 3,
            "componentType" : 5123,
            "count" : 15360,
            "type" : "SCALAR"
        },
        {
            "bufferView" : 4,
            "componentType" : 5126,
            "count" : 5597,
            "max" : [
                0.04898371919989586,
                0.02020493522286415,
                0.04917316883802414
            ],
            "min" : [
                -0.04900538921356201,
                -0.012221341952681541,
                -0.04928163066506386
            ],
            "type" : "VEC3"
        },
        {
            "bufferView" : 5,
            "componentType" : 5126,
            "count" : 5597,
            "type" : "VEC3"
        },
        {
            "bufferView" : 6,
            "componentType" : 5126,
            "count" : 5597,
            "type" : "VEC2"
        },
        {
            "bufferView" : 7,
            "componentType" : 5123,
            "count" : 30780,
            "type" : "SCALAR"
        }
    ],
    "bufferViews" : [
        {
            "buffer" : 0,
            "byteLength" : 34032,
            "byteOffset" : 0
        },
        {
            "buffer" : 0,
            "byteLength" : 34032,
            "byteOffset" : 34032
        },
        {
            "buffer" : 0,
            "byteLength" : 22688,
            "byteOffset" : 68064
        },
        {
            "buffer" : 0,
            "byteLength" : 30720,
            "byteOffset" : 90752
        },
        {
            "buffer" : 0,
            "byteLength" : 67164,
            "byteOffset" : 121472
        },
        {
            "buffer" : 0,
            "byteLength" : 67164,
            "byteOffset" : 188636
        },
        {
            "buffer" : 0,
            "byteLength" : 44776,
            "byteOffset" : 255800
        },
        {
            "buffer" : 0,
            "byteLength" : 61560,
            "byteOffset" : 300576
        }
    ],
    "buffers" : [
        {
            "byteLength" : 362136,
            "uri" : "data:application/octet-stream;base64,"
        }
    ]
}
